<svg id="Capa_1" enable-background="new 0 0 512 512" height="512" viewBox="0 0 512 512" width="512" xmlns="http://www.w3.org/2000/svg" xmlns:xlink="http://www.w3.org/1999/xlink"><linearGradient id="lg1"><stop offset="0" stop-color="#560dff"/><stop offset="1" stop-color="#73ecff"/></linearGradient><linearGradient id="SVGID_1_" gradientUnits="userSpaceOnUse" x1="74.98" x2="437.019" xlink:href="#lg1" y1="437.018" y2="74.98"/><radialGradient id="SVGID_2_" cx="256" cy="255.999" gradientUnits="userSpaceOnUse" r="256"><stop offset="0" stop-color="#6b23ea"/><stop offset="1" stop-color="#3dcbcd" stop-opacity="0"/></radialGradient><linearGradient id="lg2"><stop offset="0" stop-color="#389fff"/><stop offset=".1209" stop-color="#45affa"/><stop offset=".5726" stop-color="#73e9e7"/><stop offset=".79" stop-color="#85ffe0"/><stop offset=".881" stop-color="#9dffe6"/><stop offset="1" stop-color="#c2fff0"/></linearGradient><linearGradient id="SVGID_3_" gradientUnits="userSpaceOnUse" x1="-115.856" x2="549.024" xlink:href="#lg2" y1="561.479" y2="-103.401"/><linearGradient id="SVGID_4_" gradientUnits="userSpaceOnUse" x1="-68.834" x2="465.411" xlink:href="#lg2" y1="669.834" y2="135.589"/><linearGradient id="SVGID_5_" gradientTransform="matrix(1 -.003 .003 1 16.783 .767)" gradientUnits="userSpaceOnUse" x1="-208.641" x2="545.543" xlink:href="#lg2" y1="720.356" y2="-33.828"/><linearGradient id="SVGID_6_" gradientUnits="userSpaceOnUse" x1="229.198" x2="277.351" xlink:href="#lg1" y1="105.06" y2="56.907"/><radialGradient id="SVGID_7_" cx="256" cy="78.247" gradientUnits="userSpaceOnUse" r="23.266"><stop offset="0" stop-color="#3dcbcd" stop-opacity="0"/><stop offset=".8244" stop-color="#6b23ea"/></radialGradient><linearGradient id="SVGID_8_" gradientUnits="userSpaceOnUse" x1="85.067" x2="377.941" xlink:href="#lg1" y1="316.907" y2="24.033"/><linearGradient id="SVGID_9_" gradientUnits="userSpaceOnUse" x1="72.088" x2="413.99" xlink:href="#lg1" y1="427.552" y2="85.65"/><linearGradient id="SVGID_10_" gradientUnits="userSpaceOnUse" x1="211.126" x2="428.351" xlink:href="#lg2" y1="466.286" y2="249.061"/><linearGradient id="SVGID_11_" gradientUnits="userSpaceOnUse" x1="221.712" x2="406.199" xlink:href="#lg2" y1="429.889" y2="245.401"/><linearGradient id="SVGID_12_" gradientUnits="userSpaceOnUse" x1="36.754" x2="365.942" xlink:href="#lg1" y1="444.047" y2="114.859"/><linearGradient id="SVGID_13_" gradientUnits="userSpaceOnUse" x1="27.737" x2="423.02" y1="469.649" y2="74.366"><stop offset="0" stop-color="#85ffe0"/><stop offset=".2339" stop-color="#9dffe6"/><stop offset=".7251" stop-color="#dafff6"/><stop offset="1" stop-color="#fff"/></linearGradient><linearGradient id="SVGID_14_" gradientUnits="userSpaceOnUse" x1="102.111" x2="312.251" xlink:href="#lg2" y1="271.521" y2="61.381"/><linearGradient id="SVGID_15_" gradientUnits="userSpaceOnUse" x1="207.866" x2="435.549" xlink:href="#lg2" y1="459.255" y2="231.571"/><linearGradient id="SVGID_16_" gradientUnits="userSpaceOnUse" x1="208.576" x2="435.403" xlink:href="#lg2" y1="428.251" y2="201.423"/><linearGradient id="SVGID_17_" gradientUnits="userSpaceOnUse" x1="313.22" x2="449.355" xlink:href="#lg2" y1="231.848" y2="95.713"/><linearGradient id="SVGID_18_" gradientUnits="userSpaceOnUse" x1="304.201" x2="449.816" xlink:href="#lg2" y1="256.705" y2="112.287"/><linearGradient id="SVGID_19_" gradientUnits="userSpaceOnUse" x1="117.457" x2="370.407" xlink:href="#lg2" y1="349.138" y2="96.189"/><linearGradient id="SVGID_20_" gradientUnits="userSpaceOnUse" x1="91.905" x2="349.775" xlink:href="#lg2" y1="374.454" y2="116.584"/><g><circle cx="256" cy="256" fill="url(#SVGID_1_)" r="256"/><circle cx="256" cy="256" fill="url(#SVGID_2_)" r="256"/><path d="m134.145 88.14c-2.893 111.964-2.893 223.926 0 335.89.455 16.74 14.311 30.929 30.855 31.482 19.857.643 39.715 1.075 59.572 1.297-6.051-133.846-11.554-267.595-15.01-401.165-14.854.22-29.708.558-44.562 1.013-16.544.555-30.4 14.742-30.855 31.483z" fill="url(#SVGID_3_)"/><path d="m377.379 87.867c-.501-16.743-14.386-30.729-30.93-31.228-4.983-.16-9.966-.306-14.949-.441 2.517 133.257 2.517 266.514 0 399.772 5.35-.144 10.701-.303 16.051-.477 16.544-.606 29.915-15.326 30.32-32.062 2.723-111.843 2.548-223.697-.492-335.564z" fill="url(#SVGID_4_)"/><path d="m362.763 423.944c.438-20.068.795-40.135 1.07-60.203-15.16-35.542-30.804-71.467-46.593-107.57 15.804-56.538 31.251-112.797 45.511-168.458-.448-16.793-14.71-31.1-31.252-31.514-40.645-1.066-81.291-1.25-121.938-.554-8.275.144-15.091 7.158-15.217 15.612-1.673 118.137-1.742 236.273-.207 354.41.242 16.914 13.89 30.951 30.434 31.143 35.643.398 71.285.119 106.927-.838 16.544-.505 30.912-15.238 31.265-32.028z" fill="url(#SVGID_5_)"/><path d="m263.541 78.256c.008 4.245-3.369 7.681-7.541 7.679-4.173.002-7.549-3.431-7.541-7.679.008-4.245 3.385-7.7 7.541-7.696 4.155-.002 7.532 3.453 7.541 7.696z" fill="url(#SVGID_6_)"/><path d="m263.541 78.256c.008 4.245-3.369 7.681-7.541 7.679-4.173.002-7.549-3.431-7.541-7.679.008-4.245 3.385-7.7 7.541-7.696 4.155-.002 7.532 3.453 7.541 7.696z" fill="url(#SVGID_7_)"/><path d="m164.665 71.92c-8.31.25-15.219 7.307-15.414 15.707-2.076 92.009-2.452 184.018-1.126 276.027.125 8.405 7.058 15.376 15.467 15.546 10.01.197 20.02.362 30.03.495 25.42-45.968 51.631-92.537 77.715-138.982-26.113-56.716-52.234-113.52-76.991-169.534-9.894.199-19.787.445-29.681.741z" fill="url(#SVGID_8_)"/><path d="m256 101.31c-6.276-.003-11.958-2.564-16.05-6.719-4.902-4.973-9.788-9.934-14.657-14.879-5.62-5.708-13.246-8.849-21.229-8.712-3.239.055-6.478.115-9.718.179-1.457 102.839-1.698 205.679-.724 308.517 51.595.685 103.191.521 154.786-.495 8.404-.168 15.343-7.147 15.426-15.545.345 0 1.102-123.995.798-123.995-.081.366-109.095-138.413-108.632-138.351z" fill="url(#SVGID_9_)"/><path d="m278.792 395.422c-10.13.055-20.259.075-30.389.056.014 10.25.028 20.499.044 30.748 10.071.022 20.141 0 30.212-.067 8.337-.061 15.156-7.01 15.222-15.492.065-8.478-6.694-15.289-15.089-15.245z" fill="url(#SVGID_10_)"/><path d="m263.576 410.852c.016-8.493-6.778-15.358-15.173-15.374-5.065-.009-10.13-.028-15.195-.056-8.396-.046-15.156 6.765-15.089 15.244.065 8.482 6.885 15.43 15.222 15.492 5.035.034 10.071.055 15.106.067 8.338.021 15.112-6.881 15.129-15.373z" fill="url(#SVGID_11_)"/><path d="m364.632 239.66c-.112-50.678-.739-101.355-1.883-152.033-.195-8.402-7.105-15.459-15.414-15.707-13.133-.392-26.266-.698-39.398-.92-7.985-.136-15.609 3.003-21.229 8.712-4.869 4.945-9.755 9.906-14.657 14.879-4.091 4.148-9.779 6.717-16.05 6.719 10.173 62.018 52.673 113.81 108.631 138.35z" fill="url(#SVGID_12_)"/><path d="m409.961 347.477c-102.641 2.509-205.282 2.509-307.923 0-8.443-.216-15.427-7.114-15.565-15.393-.996-60.667-.8-121.334.59-182 .193-8.279 7.192-15.241 15.6-15.522 102.224-3.336 204.448-3.336 306.673 0 8.408.279 15.407 7.246 15.6 15.522 1.389 60.667 1.586 121.334.59 182-.138 8.282-7.121 15.178-15.565 15.393z" fill="url(#SVGID_13_)"/><path d="m117.333 164.337c-.816 51.083-.951 102.167-.404 153.25 10.226.15 20.452.284 30.677.401 20.238-25.473 40.73-51.306 61.25-77.249-20.474-25.894-40.861-51.643-60.935-77.001-10.196.175-20.392.374-30.588.599z" fill="url(#SVGID_14_)"/><path d="m318.411 310.742c.018-4.238 3.466-7.68 7.707-7.703 20.473-.114 40.945-.279 61.417-.493 4.241-.04 7.65 3.302 7.611 7.479-.04 4.172-3.51 7.611-7.745 7.672-20.452.285-40.903.502-61.355.654-4.234.031-7.652-3.377-7.635-7.609z" fill="url(#SVGID_15_)"/><path d="m318.503 280.092c.007-4.23 3.453-7.669 7.698-7.676 20.497-.04 40.993-.097 61.49-.172 4.246-.014 7.678 3.357 7.66 7.533-.017 4.173-3.475 7.59-7.719 7.617-20.488.145-40.975.255-61.463.332-4.243.013-7.674-3.404-7.666-7.634z" fill="url(#SVGID_16_)"/><path d="m356.519 171.513c-4.005-4.881-10.049-8.055-16.781-8.146-11.891-.163-21.465 9.413-21.406 21.336.12 23.621 29.164 43.564 36.79 48.342 1.109.7 2.511.705 3.616.015 4.844-3.027 18.39-12.084 27.471-24.227-9.89-12.381-19.795-24.829-29.69-37.32z" fill="url(#SVGID_17_)"/><path d="m373.126 163.899c-6.734-.125-12.703 2.847-16.608 7.614.183 17.998 12.788 33.164 29.689 37.321 5.15-6.888 8.863-14.769 8.76-23.194-.148-11.753-9.95-21.51-21.841-21.741z" fill="url(#SVGID_18_)"/><path d="m178.51 163.287c-10.196.125-20.392.276-30.588.451-.636 51.417-.741 102.834-.315 154.25 51.811.594 103.621.762 155.432.505.036-10.231.064-20.461.083-30.692-68.99.091-125.259-55.984-124.612-124.514z" fill="url(#SVGID_19_)"/><path d="m178.51 163.287c-.647 68.526 55.623 124.607 124.612 124.514.076-41.605.003-83.211-.219-124.816-41.465-.31-82.929-.208-124.393.302z" fill="url(#SVGID_20_)"/></g></svg>