<svg id="Capa_1" enable-background="new 0 0 512 512" height="512" viewBox="0 0 512 512" width="512" xmlns="http://www.w3.org/2000/svg" xmlns:xlink="http://www.w3.org/1999/xlink"><linearGradient id="SVGID_1_" gradientUnits="userSpaceOnUse" x1="256" x2="256" y1="421" y2="31"><stop offset="0" stop-color="#addcff"/><stop offset=".5028" stop-color="#eaf6ff"/><stop offset="1" stop-color="#eaf6ff"/></linearGradient><linearGradient id="SVGID_2_" gradientUnits="userSpaceOnUse" x1="256" x2="256" y1="481" y2="31"><stop offset="0" stop-color="#5558ff"/><stop offset="1" stop-color="#00c0ff"/></linearGradient><g><g><g><path d="m331 118.857 45-12.857c0-41.4-33.6-75-75-75l-17.143 60h-102.857v210h150zm106 32.143h-76c-8.291 0-15 6.709-15 15v165h-180v-165c0-8.291-6.709-15-15-15h-76c-24.814 0-45 20.186-45 45v180c0 24.814 20.186 45 45 45h362c24.814 0 45-20.186 45-45v-180c0-24.814-20.186-45-45-45z" fill="url(#SVGID_1_)"/></g></g><g><g><path d="m497 391h-482c-8.291 0-15 6.709-15 15 0 41.353 33.647 75 75 75h362c41.353 0 75-33.647 75-75 0-8.291-6.709-15-15-15zm-346-30h210c8.284 0 15-6.716 15-15v-240h-60c-8.284 0-15-6.716-15-15v-60h-150c-8.284 0-15 6.716-15 15v300c0 8.284 6.716 15 15 15zm60-240h30c8.401 0 15 6.599 15 15 0 8.399-6.599 15-15 15h-30c-8.401 0-15-6.601-15-15 0-8.401 6.599-15 15-15zm0 60h90c8.401 0 15 6.599 15 15 0 8.399-6.599 15-15 15h-90c-8.401 0-15-6.601-15-15 0-8.401 6.599-15 15-15zm0 60h90c8.401 0 15 6.599 15 15 0 8.399-6.599 15-15 15h-90c-8.401 0-15-6.601-15-15 0-8.401 6.599-15 15-15z" fill="url(#SVGID_2_)"/></g></g></g></svg>