<svg id="Capa_1" enable-background="new 0 0 512 512" height="512" viewBox="0 0 512 512" width="512" xmlns="http://www.w3.org/2000/svg" xmlns:xlink="http://www.w3.org/1999/xlink"><linearGradient id="SVGID_1_" gradientUnits="userSpaceOnUse" x1="74.98" x2="437.019" y1="437.019" y2="74.98"><stop offset="0" stop-color="#560dff"/><stop offset="1" stop-color="#73ecff"/></linearGradient><radialGradient id="SVGID_2_" cx="255.999" cy="256" gradientUnits="userSpaceOnUse" r="256"><stop offset="0" stop-color="#6b23ea"/><stop offset="1" stop-color="#3dcbcd" stop-opacity="0"/></radialGradient><linearGradient id="lg1"><stop offset="0" stop-color="#85ffe0"/><stop offset=".2339" stop-color="#9dffe6"/><stop offset=".7251" stop-color="#dafff6"/><stop offset="1" stop-color="#fff"/></linearGradient><linearGradient id="SVGID_3_" gradientUnits="userSpaceOnUse" x1="35.329" x2="683.829" xlink:href="#lg1" y1="615.096" y2="-33.404"/><linearGradient id="lg2"><stop offset="0" stop-color="#10e5c8"/><stop offset=".0406" stop-color="#21e7cc" stop-opacity=".959"/><stop offset=".1888" stop-color="#5bedd9" stop-opacity=".811"/><stop offset=".3369" stop-color="#8df3e5" stop-opacity=".663"/><stop offset=".4817" stop-color="#b6f7ee" stop-opacity=".518"/><stop offset=".6225" stop-color="#d6fbf6" stop-opacity=".378"/><stop offset=".7583" stop-color="#edfdfb" stop-opacity=".242"/><stop offset=".8866" stop-color="#fafefe" stop-opacity=".113"/><stop offset="1" stop-color="#fff" stop-opacity="0"/></linearGradient><linearGradient id="SVGID_4_" gradientUnits="userSpaceOnUse" x1="256" x2="256" xlink:href="#lg2" y1="371.485" y2="445.426"/><linearGradient id="lg3"><stop offset="0" stop-color="#3ca1ff"/><stop offset=".1082" stop-color="#47affa"/><stop offset=".5685" stop-color="#74e9e7"/><stop offset=".79" stop-color="#85ffe0"/><stop offset=".881" stop-color="#9dffe6"/><stop offset="1" stop-color="#c2fff0"/></linearGradient><linearGradient id="SVGID_5_" gradientUnits="userSpaceOnUse" x1="101.986" x2="336.274" xlink:href="#lg3" y1="442.845" y2="208.557"/><linearGradient id="lg4"><stop offset="0" stop-color="#63bcf5" stop-opacity="0"/><stop offset=".2318" stop-color="#63b9f5" stop-opacity=".232"/><stop offset=".3929" stop-color="#64b0f4" stop-opacity=".393"/><stop offset=".5326" stop-color="#64a1f3" stop-opacity=".533"/><stop offset=".6601" stop-color="#668bf1" stop-opacity=".66"/><stop offset=".7794" stop-color="#676fef" stop-opacity=".779"/><stop offset=".8909" stop-color="#694ced" stop-opacity=".891"/><stop offset=".9972" stop-color="#6b24ea" stop-opacity=".997"/><stop offset="1" stop-color="#6b23ea"/></linearGradient><linearGradient id="SVGID_6_" gradientUnits="userSpaceOnUse" x1="143.635" x2="143.635" xlink:href="#lg4" y1="426.635" y2="380.599"/><linearGradient id="SVGID_7_" gradientUnits="userSpaceOnUse" x1="-34.388" x2="533.949" xlink:href="#lg1" y1="752.619" y2="184.282"/><linearGradient id="lg5"><stop offset="0" stop-color="#10e5c8"/><stop offset=".055" stop-color="#24e7cc" stop-opacity=".945"/><stop offset=".254" stop-color="#65eedc" stop-opacity=".746"/><stop offset=".4433" stop-color="#9cf4e8" stop-opacity=".557"/><stop offset=".6177" stop-color="#c7f9f2" stop-opacity=".382"/><stop offset=".7741" stop-color="#e6fcf9" stop-opacity=".226"/><stop offset=".9067" stop-color="#f8fefd" stop-opacity=".093"/><stop offset="1" stop-color="#fff" stop-opacity="0"/></linearGradient><linearGradient id="SVGID_8_" gradientUnits="userSpaceOnUse" x1="273.826" x2="432.638" xlink:href="#lg5" y1="257.186" y2="415.999"/><linearGradient id="SVGID_9_" gradientUnits="userSpaceOnUse" x1="34.032" x2="686.345" xlink:href="#lg1" y1="586.523" y2="-65.79"/><linearGradient id="SVGID_10_" gradientUnits="userSpaceOnUse" x1="256" x2="256" xlink:href="#lg2" y1="341.569" y2="414.382"/><linearGradient id="SVGID_11_" gradientUnits="userSpaceOnUse" x1="100.859" x2="337.087" xlink:href="#lg3" y1="412.854" y2="176.626"/><linearGradient id="SVGID_12_" gradientUnits="userSpaceOnUse" x1="142.863" x2="142.863" xlink:href="#lg4" y1="394.504" y2="348.576"/><linearGradient id="SVGID_13_" gradientUnits="userSpaceOnUse" x1="-32.929" x2="533.632" xlink:href="#lg1" y1="721.379" y2="154.818"/><linearGradient id="SVGID_14_" gradientUnits="userSpaceOnUse" x1="273.182" x2="433.431" xlink:href="#lg5" y1="226.355" y2="386.604"/><linearGradient id="SVGID_15_" gradientUnits="userSpaceOnUse" x1="-89.538" x2="333.935" xlink:href="#lg1" y1="645.625" y2="222.152"/><linearGradient id="SVGID_16_" gradientUnits="userSpaceOnUse" x1="-276.996" x2="455.345" xlink:href="#lg1" y1="733.476" y2="1.135"/><linearGradient id="SVGID_17_" gradientUnits="userSpaceOnUse" x1="239.138" x2="409.451" xlink:href="#lg1" y1="332.707" y2="162.395"/><linearGradient id="SVGID_18_" gradientUnits="userSpaceOnUse" x1="57.713" x2="536.145" xlink:href="#lg1" y1="370.96" y2="-107.472"/><radialGradient id="SVGID_19_" cx="352.107" cy="314.676" gradientUnits="userSpaceOnUse" r="160.874"><stop offset="0" stop-color="#85ffe0"/><stop offset=".134" stop-color="#9dffe6" stop-opacity=".866"/><stop offset=".4036" stop-color="#c7fff1" stop-opacity=".596"/><stop offset=".6474" stop-color="#e6fff9" stop-opacity=".353"/><stop offset=".8544" stop-color="#f8fffd" stop-opacity=".146"/><stop offset="1" stop-color="#fff" stop-opacity="0"/></radialGradient><linearGradient id="SVGID_20_" gradientUnits="userSpaceOnUse" x1="85.263" x2="178.776" xlink:href="#lg3" y1="224.861" y2="131.348"/><linearGradient id="SVGID_21_" gradientUnits="userSpaceOnUse" x1="14.63" x2="252.987" xlink:href="#lg3" y1="399.092" y2="160.734"/><linearGradient id="SVGID_22_" gradientUnits="userSpaceOnUse" x1="-76.793" x2="511.674" xlink:href="#lg3" y1="465.808" y2="-122.659"/><g><circle cx="256" cy="256" fill="url(#SVGID_1_)" r="256"/><circle cx="256" cy="256" fill="url(#SVGID_2_)" r="256"/><path d="m101.713 377c.335 10 .711 20 1.129 30 .352 8.276 7.382 15.363 15.658 15.776 6.111.3 12.222.58 18.333.84 2.321-4.942 4.661-9.898 7.018-14.865 2.664 5.149 5.325 10.303 7.982 15.463 80.556 2.995 161.111 2.516 241.667-1.438 8.276-.414 15.306-7.5 15.658-15.776.418-10 .794-20 1.129-30-102.858 4.033-205.716 4.033-308.574 0z" fill="url(#SVGID_3_)"/><path d="m101.713 377c.335 10 .711 20 1.129 30 .352 8.276 7.382 15.363 15.658 15.776 6.111.3 12.222.58 18.333.84 2.321-4.942 4.661-9.898 7.018-14.865 2.664 5.149 5.325 10.303 7.982 15.463 80.556 2.995 161.111 2.516 241.667-1.438 8.276-.414 15.306-7.5 15.658-15.776.418-10 .794-20 1.129-30-102.858 4.033-205.716 4.033-308.574 0z" fill="url(#SVGID_4_)"/><path d="m151.833 424.214c-5-.186-10-.385-15-.598-.538-15.146-1.004-30.292-1.396-45.438 5.059.155 10.117.3 15.176.436.343 15.2.749 30.4 1.22 45.6z" fill="url(#SVGID_5_)"/><path d="m151.833 424.214c-5-.186-10-.385-15-.598-.538-15.146-1.004-30.292-1.396-45.438 5.059.155 10.117.3 15.176.436.343 15.2.749 30.4 1.22 45.6z" fill="url(#SVGID_6_)"/><path d="m412.233 232c.321 48.333-.328 96.667-1.946 145-.282 8.277-7.311 15.297-15.657 15.636-48.73 1.943-97.461 2.862-146.192 2.756 53.673-54.547 109.51-110.478 163.795-163.392z" fill="url(#SVGID_7_)"/><path d="m412.233 232c.321 48.333-.328 96.667-1.946 145-.282 8.277-7.311 15.297-15.657 15.636-48.73 1.943-97.461 2.862-146.192 2.756 53.673-54.547 109.51-110.478 163.795-163.392z" fill="url(#SVGID_8_)"/><path d="m100.833 347c.252 10 .545 20 .88 30 .282 8.277 7.311 15.297 15.657 15.636 6.161.246 12.323.475 18.484.688 2.373-4.962 4.764-9.936 7.171-14.921 2.652 5.13 5.303 10.267 7.952 15.41 81.218 2.453 162.436 2.061 243.653-1.178 8.346-.34 15.373-7.36 15.657-15.636.335-10 .628-20 .88-30-103.445 3.034-206.889 3.034-310.334.001z" fill="url(#SVGID_9_)"/><path d="m100.833 347c.252 10 .545 20 .88 30 .282 8.277 7.311 15.297 15.657 15.636 6.161.246 12.323.475 18.484.688 2.373-4.962 4.764-9.936 7.171-14.921 2.652 5.13 5.303 10.267 7.952 15.41 81.218 2.453 162.436 2.061 243.653-1.178 8.346-.34 15.373-7.36 15.657-15.636.335-10 .628-20 .88-30-103.445 3.034-206.889 3.034-310.334.001z" fill="url(#SVGID_10_)"/><path d="m150.977 393.814c-5.041-.152-10.082-.315-15.123-.49-.441-15.146-.809-30.292-1.104-45.438 5.088.116 10.175.226 15.262.328.257 15.199.579 30.4.965 45.6z" fill="url(#SVGID_11_)"/><path d="m150.977 393.814c-5.041-.152-10.082-.315-15.123-.49-.441-15.146-.809-30.292-1.104-45.438 5.088.116 10.175.226 15.262.328.257 15.199.579 30.4.965 45.6z" fill="url(#SVGID_12_)"/><path d="m411.909 202c.722 48.333.475 96.667-.742 145-.213 8.276-7.229 15.23-15.631 15.496-49.049 1.514-98.098 2.23-147.147 2.148 54.046-54.573 109.791-110.255 163.52-162.644z" fill="url(#SVGID_13_)"/><path d="m411.909 202c.722 48.333.475 96.667-.742 145-.213 8.276-7.229 15.23-15.631 15.496-49.049 1.514-98.098 2.23-147.147 2.148 54.046-54.573 109.791-110.255 163.52-162.644z" fill="url(#SVGID_14_)"/><path d="m398.741 233.728c-39.06 38.237-78.854 77.9-118.003 117.353-5.523-44.983-11.298-90.015-17.061-135.054 44.981 5.775 90.013 11.78 135.064 17.701z" fill="url(#SVGID_15_)"/><path d="m395.905 164.575c-93.27-2.466-186.539-2.466-279.809 0-5.201 5.158-10.405 10.301-15.609 15.426-1.171 55.667-1.055 111.333.347 167 .212 8.276 7.23 15.23 15.631 15.496 6.202.192 12.403.37 18.604.536 2.422-4.981 4.86-9.973 7.312-14.977 2.636 5.113 5.273 10.232 7.91 15.358 32.699.765 65.399 1.175 98.098 1.23 12.602.022 24.032-5.184 32.349-13.562 8.312-8.38 13.521-19.939 13.573-32.649.076-18.764.118-37.528.125-56.292.004-8.481 6.881-15.349 15.372-15.339 18.79.019 37.581.047 56.371.085 12.729.023 24.266-5.042 32.561-13.158 8.296-8.124 13.356-19.314 13.168-31.728-.109-7.333-.242-14.667-.396-22-5.203-5.126-10.407-10.268-15.607-15.426z" fill="url(#SVGID_16_)"/><path d="m381.522 236.832c-12.783-.982-75.579-13.643-75.571-13.639-20.603-3.691-37.759 14.366-35.179 35.142.02.005 7.297 62.766 8.172 75.524.618 8.681-2.059 16.85-6.456 23.826 2.992-1.883 5.763-4.097 8.25-6.603 8.312-8.38 13.521-19.939 13.573-32.649.076-18.764.118-37.528.125-56.292.004-8.481 6.881-15.349 15.372-15.339 18.79.019 37.581.047 56.371.085 12.474.023 23.797-4.851 32.053-12.684-5.184 2.041-10.821 3.09-16.71 2.629z" fill="url(#SVGID_17_)"/><path d="m395.536 149.504c-93.024-2.872-186.048-2.872-279.072 0-5.206 5.18-10.418 10.347-15.631 15.496-.126 5-.241 10-.347 15 103.676-2.533 207.351-2.533 311.027 0-.105-5-.22-10-.347-15-5.213-5.149-10.424-10.316-15.63-15.496z" fill="url(#SVGID_18_)"/><path d="m395.905 164.575c-93.27-2.466-186.539-2.466-279.809 0-5.201 5.158-10.405 10.301-15.609 15.426-1.171 55.667-1.055 111.333.347 167 .212 8.276 7.23 15.23 15.631 15.496 6.202.192 12.403.37 18.604.536 2.422-4.981 4.86-9.973 7.312-14.977 2.636 5.113 5.273 10.232 7.91 15.358 32.699.765 65.399 1.175 98.098 1.23 12.602.022 24.032-5.184 32.349-13.562 8.312-8.38 13.521-19.939 13.573-32.649.076-18.764.118-37.528.125-56.292.004-8.481 6.881-15.349 15.372-15.339 18.79.019 37.581.047 56.371.085 12.729.023 24.266-5.042 32.561-13.158 8.296-8.124 13.356-19.314 13.168-31.728-.109-7.333-.242-14.667-.396-22-5.203-5.126-10.407-10.268-15.607-15.426z" fill="url(#SVGID_19_)"/><path d="m149.775 178.987c-2.621 5.109-5.241 10.212-7.856 15.306-2.492-5.021-4.973-10.032-7.44-15.032.164-10.097.361-20.195.59-30.292 5.074-.136 10.148-.263 15.222-.382-.201 10.133-.372 20.267-.516 30.4z" fill="url(#SVGID_20_)"/><path d="m150.291 363.414c-5.074-.119-10.148-.246-15.222-.382-1.391-61.257-1.587-122.515-.59-183.772 5.099-.097 10.198-.189 15.297-.274-.873 61.476-.701 122.952.515 184.428z" fill="url(#SVGID_21_)"/><path d="m393.5 89.224c-4.444-.218-8.889-.426-13.333-.623-2.761-.123-4.919 2.042-4.823 4.831.107 3.102.211 6.204.312 9.306.044 1.339.613 2.644 1.586 3.626.464.469.929.938 1.393 1.407 5.845 5.902 6.773 15.115 1.64 20.982-5.874 6.714-16.636 6.433-22.855-.684-5.436-6.216-5.016-15.495.49-21.026.438-.44.875-.879 1.313-1.318.916-.92 1.409-2.191 1.371-3.534-.088-3.113-.179-6.226-.272-9.339-.085-2.798-2.395-5.15-5.155-5.248-10.278-.364-20.556-.671-30.833-.922-2.76-.068-4.955 2.167-4.906 4.986.057 3.135.112 6.271.166 9.406.023 1.354.575 2.661 1.533 3.639.465.474.93.947 1.396 1.421 5.494 5.596 6.535 14.392 1.935 20.433-5.81 7.632-17.114 7.735-23.461.403-5.36-6.189-4.813-15.543.778-21.222.444-.452.889-.902 1.333-1.353.931-.945 1.444-2.237 1.426-3.593-.041-3.141-.083-6.282-.126-9.423-.04-2.823-2.311-5.152-5.072-5.194-10.278-.159-20.556-.261-30.833-.307-2.761-.013-4.994 2.277-4.989 5.107.007 3.149.013 6.297.02 9.446.002 1.359.535 2.664 1.479 3.627.458.468.917.935 1.375 1.403 5.414 5.524 6.334 14.36 1.657 20.501-5.905 7.758-17.214 8.009-23.471.758-5.285-6.122-4.609-15.49 1.066-21.281.451-.46.902-.92 1.353-1.38.945-.964 1.476-2.268 1.479-3.628.006-3.149.013-6.297.02-9.446.006-2.83-2.228-5.119-4.989-5.107-10.278.046-20.556.148-30.833.307-2.76.043-5.031 2.371-5.072 5.194-.043 3.141-.086 6.282-.126 9.423-.018 1.356.495 2.647 1.425 3.593.444.451.888.902 1.333 1.353 5.59 5.68 6.138 15.034.778 21.223-6.133 7.086-16.896 7.226-22.857.342-5.208-6.015-4.408-15.336 1.353-21.201.458-.466.916-.932 1.373-1.398.959-.977 1.51-2.285 1.533-3.639.054-3.135.109-6.271.166-9.406.051-2.819-2.145-5.054-4.906-4.986-10.278.251-20.556.558-30.833.922-2.76.099-5.069 2.451-5.155 5.248-.094 3.113-.184 6.226-.272 9.339-.038 1.344.455 2.615 1.372 3.534.445.447.89.893 1.334 1.339 5.252 5.275 5.932 14.015 1.103 20.234-6.097 7.858-17.411 8.401-23.49 1.453-5.134-5.867-4.204-15.08 1.64-20.982.464-.469.929-.938 1.393-1.407.973-.982 1.544-2.288 1.587-3.626.101-3.102.205-6.204.312-9.305.096-2.788-2.063-4.954-4.823-4.831-4.444.197-8.889.405-13.333.623-8.276.414-15.305 7.501-15.658 15.776-.836 20-1.505 40-2.009 60 103.444-3.033 206.889-3.033 310.333 0-.504-20-1.173-40-2.009-60-.356-8.276-7.385-15.363-15.662-15.776z" fill="url(#SVGID_22_)"/></g></svg>