<svg id="Capa_1" enable-background="new 0 0 512 512" height="512" viewBox="0 0 512 512" width="512" xmlns="http://www.w3.org/2000/svg" xmlns:xlink="http://www.w3.org/1999/xlink"><linearGradient id="SVGID_1_" gradientUnits="userSpaceOnUse" x1="256" x2="256" y1="496" y2="16"><stop offset="0" stop-color="#5558ff"/><stop offset="1" stop-color="#00c0ff"/></linearGradient><linearGradient id="SVGID_2_" gradientUnits="userSpaceOnUse" x1="225.5" x2="225.5" y1="496" y2="16"><stop offset="0" stop-color="#addcff"/><stop offset=".5028" stop-color="#eaf6ff"/><stop offset="1" stop-color="#eaf6ff"/></linearGradient><g id="Schools_1_"><g><g><path d="m497 16h-115.9l-95.1 75-45 4.72v-64.72h-210v75h112l-143 15v270c0 8.399 6.599 15 15 15h61c8.401 0 15-6.601 15-15v-75h45c-24.814 0-45 20.186-45 45 0 11.567 4.508 22.02 11.704 30-7.196 7.98-11.704 18.433-11.704 30 0 24.814 20.186 45 45 45h30c12.764 0 24.241-5.396 32.439-13.962l12.561 43.962h90l12.561-43.962c8.198 8.566 19.675 13.962 32.439 13.962h30c24.814 0 45-20.186 45-45 0-11.567-4.508-22.02-11.704-30 7.196-7.98 11.704-18.433 11.704-30 0-24.814-20.186-45-45-45h45v75c0 8.399 6.599 15 15 15h61c8.401 0 15-6.601 15-15v-360c0-8.401-6.599-15-15-15zm-168.618 303.607c1.543-5.984 2.618-12.149 2.618-18.607 0-41.353-33.647-75-75-75s-75 33.647-75 75c0 6.458 1.075 12.623 2.618 18.607-5.416-2.314-11.365-3.607-17.618-3.607 8.401 0 15-6.601 15-15v-51.901l75-50.099 75 50.099v51.901c0 8.399 6.599 15 15 15-6.253 0-12.202 1.293-17.618 3.607z" fill="url(#SVGID_1_)"/></g></g><g><g><path d="m349.425 110.756 31.675-94.756h-366.1c-8.284 0-15 6.716-15 15v90h335.198c6.452 0 12.181-4.125 14.227-10.244zm-273.425-34.756c-8.401 0-15-6.601-15-15 0-8.401 6.599-15 15-15s15 6.599 15 15c0 8.399-6.599 15-15 15zm60 0c-8.401 0-15-6.601-15-15 0-8.401 6.599-15 15-15s15 6.599 15 15c0 8.399-6.599 15-15 15zm60 0c-8.401 0-15-6.601-15-15 0-8.401 6.599-15 15-15s15 6.599 15 15c0 8.399-6.599 15-15 15zm240 210h-75v-45c0-5.101-2.4-9.6-6.599-12.601l-90-60c-5.101-3.3-11.7-3.3-16.802 0l-90 60c-4.199 3.001-6.599 7.5-6.599 12.601v45h-75c-8.401 0-15 6.599-15 15v180c0 8.399 6.599 15 15 15h135v-105c0-8.401 6.599-15 15-15h60c8.401 0 15 6.599 15 15v105h135c8.401 0 15-6.601 15-15v-180c0-8.401-6.599-15-15-15zm-270 150h-30c-8.401 0-15-6.601-15-15 0-8.401 6.599-15 15-15h30c8.401 0 15 6.599 15 15 0 8.399-6.599 15-15 15zm0-60h-30c-8.401 0-15-6.601-15-15 0-8.401 6.599-15 15-15h30c8.401 0 15 6.599 15 15 0 8.399-6.599 15-15 15zm90-30c-24.9 0-45-20.101-45-45 0-24.9 20.1-45 45-45s45 20.1 45 45c0 24.899-20.1 45-45 45zm120 90h-30c-8.401 0-15-6.601-15-15 0-8.401 6.599-15 15-15h30c8.401 0 15 6.599 15 15 0 8.399-6.599 15-15 15zm0-60h-30c-8.401 0-15-6.601-15-15 0-8.401 6.599-15 15-15h30c8.401 0 15 6.599 15 15 0 8.399-6.599 15-15 15z" fill="url(#SVGID_2_)"/></g></g></g></svg>