<svg id="Capa_1" enable-background="new 0 0 512 512" height="512" viewBox="0 0 512 512" width="512" xmlns="http://www.w3.org/2000/svg" xmlns:xlink="http://www.w3.org/1999/xlink"><linearGradient id="SVGID_1_" gradientUnits="userSpaceOnUse" x1="256" x2="256" y1="482" y2="0"><stop offset="0" stop-color="#5558ff"/><stop offset="1" stop-color="#00c0ff"/></linearGradient><linearGradient id="SVGID_2_" gradientUnits="userSpaceOnUse" x1="210.5" x2="210.5" y1="512" y2="0"><stop offset="0" stop-color="#addcff"/><stop offset=".5028" stop-color="#eaf6ff"/><stop offset="1" stop-color="#eaf6ff"/></linearGradient><g><g><g><path d="m497 0h-115.901l-140.099 38.6v-23.6h-211v75h24.443l-54.443 15v271c0 8.401 6.599 15 15 15h91c8.401 0 15-6.599 15-15v106h270v-106c0 8.401 6.599 15 15 15h91c8.401 0 15-6.599 15-15v-361c0-8.401-6.599-15-15-15z" fill="url(#SVGID_1_)"/></g></g><g><g><path d="m349.425 94.756 31.674-94.756h-366.099c-8.284 0-15 6.716-15 15v90h335.198c6.452 0 12.181-4.126 14.227-10.244zm-273.425-34.756c-8.401 0-15-6.599-15-15s6.599-15 15-15 15 6.599 15 15-6.599 15-15 15zm60 0c-8.401 0-15-6.599-15-15s6.599-15 15-15 15 6.599 15 15-6.599 15-15 15zm60 0c-8.401 0-15-6.599-15-15s6.599-15 15-15 15 6.599 15 15-6.599 15-15 15zm210 91h-300c-8.401 0-15 6.599-15 15v331c0 8.401 6.599 15 15 15h300c8.401 0 15-6.599 15-15v-331c0-8.401-6.599-15-15-15zm-150 150c-24.901 0-45-20.099-45-45s20.099-45 45-45 45 20.099 45 45-20.099 45-45 45c41.4 0 75 33.6 75 75 0 8.401-6.599 15-15 15h-120c-8.401 0-15-6.599-15-15 0-41.4 33.6-75 75-75zm-30 150h-60c-8.401 0-15-6.599-15-15s6.599-15 15-15h60c8.401 0 15 6.599 15 15s-6.599 15-15 15zm120 0h-60c-8.401 0-15-6.599-15-15s6.599-15 15-15h60c8.401 0 15 6.599 15 15s-6.599 15-15 15z" fill="url(#SVGID_2_)"/></g></g></g></svg>