<svg id="Capa_1" enable-background="new 0 0 512 512" height="512" viewBox="0 0 512 512" width="512" xmlns="http://www.w3.org/2000/svg" xmlns:xlink="http://www.w3.org/1999/xlink"><linearGradient id="SVGID_1_" gradientUnits="userSpaceOnUse" x1="74.98" x2="437.019" y1="437.019" y2="74.98"><stop offset="0" stop-color="#560dff"/><stop offset="1" stop-color="#73ecff"/></linearGradient><radialGradient id="SVGID_2_" cx="256" cy="255.999" gradientUnits="userSpaceOnUse" r="256"><stop offset="0" stop-color="#6b23ea"/><stop offset="1" stop-color="#3dcbcd" stop-opacity="0"/></radialGradient><linearGradient id="lg1"><stop offset="0" stop-color="#389fff"/><stop offset=".1209" stop-color="#45affa"/><stop offset=".5726" stop-color="#73e9e7"/><stop offset=".79" stop-color="#85ffe0"/><stop offset=".881" stop-color="#9dffe6"/><stop offset="1" stop-color="#c2fff0"/></linearGradient><linearGradient id="SVGID_3_" gradientUnits="userSpaceOnUse" x1="-161.961" x2="497.49" xlink:href="#lg1" y1="595.797" y2="-63.654"/><linearGradient id="SVGID_4_" gradientUnits="userSpaceOnUse" x1="-419.363" x2="477.472" xlink:href="#lg1" y1="1041.608" y2="144.773"/><linearGradient id="SVGID_5_" gradientTransform="matrix(0 1 -1 0 -1334 -1846)" gradientUnits="userSpaceOnUse" x1="2696.019" x2="1796.605" xlink:href="#lg1" y1="-1026.523" y2="-1925.937"/><linearGradient id="lg2"><stop offset="0" stop-color="#85ffe0"/><stop offset=".2339" stop-color="#9dffe6"/><stop offset=".7251" stop-color="#dafff6"/><stop offset="1" stop-color="#fff"/></linearGradient><linearGradient id="SVGID_6_" gradientTransform="matrix(0 1 -1 0 -1334 -1846)" gradientUnits="userSpaceOnUse" x1="2128.038" x2="1286.746" xlink:href="#lg2" y1="-1452.274" y2="-2293.565"/><linearGradient id="SVGID_7_" gradientTransform="matrix(0 1 -1 0 -1334 -1846)" gradientUnits="userSpaceOnUse" x1="2503.034" x2="1666.298" xlink:href="#lg2" y1="-1197.552" y2="-2034.288"/><linearGradient id="SVGID_8_" gradientTransform="matrix(0 1 -1 0 -1334 -1846)" gradientUnits="userSpaceOnUse" x1="2454.206" x2="1716.783" xlink:href="#lg2" y1="-1133.09" y2="-1870.512"/><linearGradient id="SVGID_9_" gradientTransform="matrix(0 1 -1 0 -1334 -1846)" gradientUnits="userSpaceOnUse" x1="2702.127" x2="1968.116" xlink:href="#lg2" y1="-991.099" y2="-1725.111"/><linearGradient id="SVGID_10_" gradientUnits="userSpaceOnUse" x1="171.232" x2="513.358" xlink:href="#lg1" y1="324.854" y2="-17.273"/><linearGradient id="SVGID_11_" gradientUnits="userSpaceOnUse" x1="158.24" x2="503.444" xlink:href="#lg1" y1="417.036" y2="71.832"/><linearGradient id="SVGID_12_" gradientUnits="userSpaceOnUse" x1="157.234" x2="446.669" xlink:href="#lg1" y1="303.992" y2="14.557"/><linearGradient id="SVGID_13_" gradientTransform="matrix(0 1 -1 0 -1334 -1846)" gradientUnits="userSpaceOnUse" x1="2254.51" x2="1868.242" xlink:href="#lg1" y1="-1491.142" y2="-1877.41"/><linearGradient id="SVGID_14_" gradientTransform="matrix(0 1 -1 0 -1334 -1846)" gradientUnits="userSpaceOnUse" x1="2411.409" x2="1903.609" xlink:href="#lg1" y1="-1446.977" y2="-1954.777"/><g><circle cx="256" cy="256" fill="url(#SVGID_1_)" r="256"/><circle cx="256" cy="256" fill="url(#SVGID_2_)" r="256"/><path d="m137 80.948c-16.54.787-30.572 15.018-31.191 31.552-3.412 95-3.412 190 0 285 .619 16.532 14.651 30.765 31.191 31.552 30.917 1.422 61.833 2.295 92.75 2.618-.908-117.78-.908-235.56 0-353.34-30.917.323-61.833 1.196-92.75 2.618z" fill="url(#SVGID_3_)"/><path d="m377 80.948c-10-.46-20-.862-30-1.208 3 116.84 3 233.68 0 350.52 10-.344 20-.748 30-1.208 16.54-.789 30.573-15.017 31.191-31.552 3.412-95 3.412-190 0-285-.619-16.535-14.651-30.763-31.191-31.552z" fill="url(#SVGID_4_)"/><path d="m377.953 398.783c.431-15.135.794-30.27 1.089-45.405-14.469-39.97-29.716-80.493-45.198-121.3 15.255-40.694 30.14-81.071 44.11-120.861-.5-16.687-14.414-30.886-30.954-31.477-39.083-1.348-78.167-1.818-117.25-1.41-16.541.178-30.203 14.222-30.455 31.126-1.302 97.029-1.302 194.059 0 291.087.252 16.908 13.914 30.946 30.455 31.126 39.083.408 78.167-.062 117.25-1.41 16.54-.59 30.453-14.786 30.953-31.476z" fill="url(#SVGID_5_)"/><path d="m136.047 111.218c-2.299 80.72-2.662 161.44-1.089 242.16 21.272.544 42.545.945 63.817 1.205 19.965-40.606 40.554-81.648 61.041-122.645-20.495-41.002-40.912-81.989-60.522-122.481-21.081.379-42.164.966-63.247 1.761z" fill="url(#SVGID_6_)"/><path d="m377.953 111.218c-59.553-2.245-119.105-2.832-178.658-1.761-1.097 81.708-1.27 163.417-.519 245.126 60.089.732 120.177.332 180.266-1.205 1.572-80.72 1.209-161.44-1.089-242.16z" fill="url(#SVGID_7_)"/><path d="m150.809 125.874c-1.575 70.893-1.852 141.785-.834 212.678 16.224.306 32.447.543 48.67.71 20.108-35.537 40.684-71.452 61.171-107.324-20.494-35.878-40.918-71.738-60.716-107.161-16.097.258-32.194.624-48.291 1.097z" fill="url(#SVGID_8_)"/><path d="m363.191 125.875c-54.697-1.609-109.394-1.974-164.091-1.098-.859 71.495-1.01 142.99-.454 214.485 55.126.568 110.253.331 165.379-.71 1.019-70.892.741-141.785-.834-212.677z" fill="url(#SVGID_9_)"/><path d="m165.095 323.58c11.148.148 22.295.268 33.443.362-.094-14.741-.157-29.482-.191-44.223-19.352 5.413-33.473 22.948-33.252 43.861z" fill="url(#SVGID_10_)"/><path d="m303.106 278.012c-30.738.067-61.475.067-92.212 0-4.353-.011-8.558.595-12.547 1.707.033 14.741.097 29.482.191 44.223 50.123.421 100.245.301 150.368-.362.27-25.207-20.333-45.591-45.8-45.568z" fill="url(#SVGID_11_)"/><path d="m313.521 205.196c.15 31.695-25.713 57.466-57.546 57.491-31.834-.027-57.697-25.796-57.542-57.479.19-31.679 26.058-57.804 57.551-57.834 31.494.011 57.353 26.134 57.537 57.822z" fill="url(#SVGID_12_)"/><path d="m143.224 383.895c-4.191-.13-7.5 3.142-7.387 7.321.113 4.176 3.597 7.697 7.769 7.844 18.563.656 37.125 1.151 55.688 1.485 5.005-2.463 10.021-4.942 15.045-7.437-5.072-2.621-10.153-5.249-15.24-7.884-18.624-.3-37.249-.743-55.875-1.329z" fill="url(#SVGID_13_)"/><path d="m370.776 383.895c-57.225 1.804-114.45 2.247-171.676 1.329.061 5.107.126 10.214.195 15.32 57.033 1.025 114.065.53 171.098-1.485 4.174-.152 7.656-3.666 7.769-7.844.114-4.178-3.196-7.45-7.386-7.32z" fill="url(#SVGID_14_)"/></g></svg>